<svg width="12" height="19" viewBox="0 0 12 19" fill="none" xmlns="http://www.w3.org/2000/svg">
<path d="M5.92817 9.80459C8.71449 9.80459 10.9859 7.60296 10.9859 4.9023C10.9859 2.20163 8.71449 0 5.92817 0C3.14185 0 0.870397 2.20163 0.870397 4.9023C0.870397 7.60296 3.14185 9.80459 5.92817 9.80459ZM5.92817 2.8768C7.07904 2.8768 8.01791 3.7868 8.01791 4.9023C8.01791 6.01779 7.07904 6.92779 5.92817 6.92779C4.7773 6.92779 3.83843 6.01779 3.83843 4.9023C3.83843 3.7868 4.7773 2.8768 5.92817 2.8768Z" fill="black"/>
<path d="M7.95735 13.7968C8.98708 13.562 9.98652 13.1804 10.8951 12.6226C11.5917 12.2116 11.8037 11.3016 11.3494 10.6265C10.9254 9.95131 9.98652 9.74582 9.28994 10.1861C7.23048 11.4484 4.53502 11.4484 2.47557 10.1861C1.77899 9.77518 0.870405 9.95131 0.416113 10.6265C-0.00789184 11.3016 0.173825 12.1823 0.870405 12.6226C1.77899 13.1804 2.77843 13.562 3.80815 13.7968L1.05212 16.5562C0.476686 17.1139 0.476686 18.0239 1.05212 18.5817C1.35498 18.8752 1.71842 18.9927 2.11213 18.9927C2.50585 18.9927 2.86929 18.8459 3.17215 18.5817L5.95847 15.881L8.74479 18.5817C9.32022 19.1394 10.2591 19.1394 10.8345 18.5817C11.41 18.0239 11.41 17.1139 10.8345 16.5562L7.95735 13.7968Z" fill="black"/>
</svg>
