<svg width="21" height="20" viewBox="0 0 21 20" fill="none" xmlns="http://www.w3.org/2000/svg">
<path d="M11.089 14.3594C6.57384 14.3594 3.83594 11.2439 3.73186 6.06465H6.02146C6.09351 9.86541 7.83071 11.4829 9.16764 11.8096V6.06465H11.3612V9.34748C12.6501 9.20406 13.995 7.71404 14.4433 6.06465H16.5968C16.2526 8.08853 14.7875 9.58653 13.7548 10.2001C14.7875 10.6941 16.4607 12.0008 17.1012 14.3594H14.7315C14.2352 12.7817 13.0023 11.5626 11.3612 11.3953V14.3594H11.089ZM9.95219 19.9211H10.7848C15.3079 19.9211 17.5735 19.9211 18.9745 18.5267C20.3674 17.1243 20.3674 14.8693 20.3674 10.3833V9.53872C20.3674 5.04474 20.3674 2.79776 18.9745 1.39538C17.5735 0.000976562 15.3079 0.000976562 10.7848 0.000976562H9.95219C5.42905 0.000976562 3.16347 0.000976562 1.75449 1.39538C0.345511 2.78979 0.353517 5.05271 0.353517 9.53872V10.3833C0.353517 14.8773 0.353517 17.1243 1.75449 18.5267C3.15546 19.929 5.42905 19.9211 9.95219 19.9211Z" fill="black"/>
</svg>
