<svg width="366" height="724" viewBox="0 0 366 724" fill="none" xmlns="http://www.w3.org/2000/svg">
<path d="M47.1951 213.058C30.5961 193.368 19.8833 169.923 16.721 147H0C1.4783 159.282 4.65226 171.3 9.43125 182.711C15.6656 197.577 24.1247 211.409 34.5184 223.732C36.9816 226.65 39.504 229.424 42.0855 232.053H66.8842C59.6731 226.429 53.0737 220.062 47.1951 213.058Z" fill="white"/>
<path d="M110.374 182.633C116.607 197.501 125.066 211.333 135.461 223.654C137.925 226.572 140.447 229.346 143.029 231.976H167.827C160.609 226.346 154.004 219.971 148.121 212.958C131.545 193.296 120.837 169.89 117.659 147H100.938C102.424 159.256 105.599 171.248 110.374 182.633Z" fill="white"/>
<path d="M249.07 213.058C232.471 193.368 221.753 169.923 218.59 147H201.875C203.351 159.283 206.525 171.301 211.306 182.711C217.538 197.578 225.998 211.41 236.393 223.732C238.857 226.65 241.377 229.424 243.955 232.053H268.759C261.548 226.429 254.949 220.062 249.07 213.058Z" fill="white"/>
<path d="M350.002 213.058C333.403 193.368 322.69 169.923 319.528 147H302.812C304.291 159.282 307.465 171.301 312.244 182.711C318.478 197.577 326.937 211.409 337.331 223.732C339.794 226.65 342.316 229.424 344.898 232.053H369.697C362.485 226.428 355.884 220.061 350.002 213.058Z" fill="white"/>
<path d="M47.1951 298.057C30.5961 278.368 19.8833 254.922 16.721 231.999H0C1.4783 244.281 4.65226 256.299 9.43125 267.71C15.6656 282.576 24.1247 296.408 34.5184 308.731C36.9816 311.649 39.504 314.423 42.0855 317.052H66.8842C59.6731 311.428 53.0737 305.061 47.1951 298.057Z" fill="white"/>
<path d="M110.374 267.632C116.607 282.5 125.066 296.332 135.461 308.653C137.925 311.571 140.447 314.345 143.029 316.975H167.827C160.609 311.345 154.004 304.97 148.121 297.957C131.545 278.295 120.837 254.889 117.659 231.999H100.938C102.424 244.255 105.599 256.247 110.374 267.632Z" fill="white"/>
<path d="M249.07 298.057C232.471 278.368 221.753 254.922 218.59 231.999H201.875C203.351 244.282 206.525 256.3 211.306 267.71C217.538 282.577 225.998 296.409 236.393 308.731C238.857 311.649 241.377 314.423 243.955 317.052H268.759C261.548 311.428 254.949 305.061 249.07 298.057Z" fill="white"/>
<path d="M350.002 298.057C333.403 278.368 322.69 254.922 319.528 231.999H302.812C304.291 244.281 307.465 256.3 312.244 267.71C318.478 282.576 326.937 296.408 337.331 308.731C339.794 311.649 342.316 314.423 344.898 317.052H369.697C362.485 311.427 355.884 305.06 350.002 298.057Z" fill="white"/>
<path d="M57.8184 383.055C41.2194 363.371 30.5066 339.926 27.3444 316.997H10.6289C12.1063 329.281 15.2803 341.301 20.0602 352.714C26.2946 367.578 34.7537 381.408 45.1473 393.729C47.6105 396.65 50.1329 399.424 52.7145 402.05H77.5131C70.3029 396.423 63.702 390.057 57.8184 383.055Z" fill="white"/>
<path d="M120.998 352.642C127.232 367.506 135.691 381.336 146.085 393.656C148.548 396.578 151.07 399.352 153.652 401.978H178.451C171.234 396.345 164.629 389.969 158.745 382.955C142.168 363.299 131.461 339.893 128.282 316.997H111.566C113.05 329.257 116.224 341.252 120.998 352.642Z" fill="white"/>
<path d="M259.705 383.055C243.106 363.371 232.393 339.926 229.231 316.997H212.504C213.979 329.282 217.153 341.302 221.935 352.714C228.17 367.578 236.629 381.408 247.022 393.729C249.486 396.65 252.008 399.424 254.589 402.05H279.388C272.181 396.424 265.583 390.058 259.705 383.055Z" fill="white"/>
<path d="M360.636 383.055C344.037 363.371 333.319 339.926 330.157 316.997H313.441C314.919 329.281 318.093 341.301 322.873 352.714C329.105 367.579 337.564 381.409 347.96 393.729C350.423 396.65 352.945 399.424 355.527 402.05H380.326C373.115 396.426 366.516 390.059 360.636 383.055Z" fill="white"/>
<path d="M47.1951 468.058C30.5961 448.368 19.8833 424.923 16.721 402H0C1.4783 414.282 4.65226 426.3 9.43125 437.711C15.6656 452.577 24.1247 466.409 34.5184 478.732C36.9816 481.65 39.504 484.424 42.0855 487.053H66.8842C59.6731 481.429 53.0737 475.062 47.1951 468.058Z" fill="white"/>
<path d="M110.374 437.633C116.607 452.501 125.066 466.333 135.461 478.654C137.925 481.572 140.447 484.346 143.029 486.976H167.827C160.609 481.346 154.004 474.971 148.121 467.958C131.545 448.296 120.837 424.89 117.659 402H100.938C102.424 414.256 105.599 426.248 110.374 437.633Z" fill="white"/>
<path d="M249.07 468.058C232.471 448.368 221.753 424.923 218.59 402H201.875C203.351 414.283 206.525 426.301 211.306 437.711C217.538 452.578 225.998 466.41 236.393 478.732C238.857 481.65 241.377 484.424 243.955 487.053H268.759C261.548 481.429 254.949 475.062 249.07 468.058Z" fill="white"/>
<path d="M350.002 468.058C333.403 448.368 322.69 424.923 319.528 402H302.812C304.291 414.282 307.465 426.301 312.244 437.711C318.478 452.577 326.937 466.409 337.331 478.732C339.794 481.65 342.316 484.424 344.898 487.053H369.697C362.485 481.428 355.884 475.061 350.002 468.058Z" fill="white"/>
<path d="M47.1951 553.057C30.5961 533.368 19.8833 509.922 16.721 486.999H0C1.4783 499.281 4.65226 511.299 9.43125 522.71C15.6656 537.576 24.1247 551.408 34.5184 563.731C36.9816 566.649 39.504 569.423 42.0855 572.052H66.8842C59.6731 566.428 53.0737 560.061 47.1951 553.057Z" fill="white"/>
<path d="M110.374 522.632C116.607 537.5 125.066 551.332 135.461 563.653C137.925 566.571 140.447 569.345 143.029 571.975H167.827C160.609 566.345 154.004 559.97 148.121 552.957C131.545 533.295 120.837 509.889 117.659 486.999H100.938C102.424 499.255 105.599 511.247 110.374 522.632Z" fill="white"/>
<path d="M249.07 553.057C232.471 533.368 221.753 509.922 218.59 486.999H201.875C203.351 499.282 206.525 511.3 211.306 522.71C217.538 537.577 225.998 551.409 236.393 563.731C238.857 566.649 241.377 569.423 243.955 572.052H268.759C261.548 566.428 254.949 560.061 249.07 553.057Z" fill="white"/>
<path d="M350.002 553.057C333.403 533.368 322.69 509.922 319.528 486.999H302.812C304.291 499.281 307.465 511.3 312.244 522.71C318.478 537.576 326.937 551.408 337.331 563.731C339.794 566.649 342.316 569.423 344.898 572.052H369.697C362.485 566.427 355.884 560.06 350.002 553.057Z" fill="white"/>
<path d="M57.8184 638.055C41.2194 618.371 30.5066 594.926 27.3444 571.997H10.6289C12.1063 584.281 15.2803 596.301 20.0602 607.714C26.2946 622.578 34.7537 636.408 45.1473 648.729C47.6105 651.65 50.1329 654.424 52.7145 657.05H77.5131C70.3029 651.423 63.702 645.057 57.8184 638.055Z" fill="white"/>
<path d="M120.998 607.642C127.232 622.506 135.691 636.336 146.085 648.656C148.548 651.578 151.07 654.352 153.652 656.978H178.451C171.234 651.345 164.629 644.969 158.745 637.955C142.168 618.299 131.461 594.893 128.282 571.997H111.566C113.05 584.257 116.224 596.252 120.998 607.642Z" fill="white"/>
<path d="M259.705 638.055C243.106 618.371 232.393 594.926 229.231 571.997H212.504C213.979 584.282 217.153 596.302 221.935 607.714C228.17 622.578 236.629 636.408 247.022 648.729C249.486 651.65 252.008 654.424 254.589 657.05H279.388C272.181 651.424 265.583 645.058 259.705 638.055Z" fill="white"/>
<path d="M360.636 638.055C344.037 618.371 333.319 594.926 330.157 571.997H313.441C314.919 584.281 318.093 596.301 322.873 607.714C329.105 622.579 337.564 636.409 347.96 648.729C350.423 651.65 352.945 654.424 355.527 657.05H380.326C373.115 651.426 366.516 645.059 360.636 638.055Z" fill="white"/>
</svg>
