<svg width="283" height="766" viewBox="0 0 283 766" fill="none" xmlns="http://www.w3.org/2000/svg">
<path d="M49.8122 66.0576C33.2132 46.3685 22.5004 22.9235 19.3382 0H2.61719C4.09549 12.2824 7.26945 24.3005 12.0484 35.7111C18.2807 50.5785 26.7399 64.4104 37.1355 76.7315C39.5988 79.6497 42.1212 82.4236 44.7027 85.0532H69.5013C62.2903 79.4294 55.6909 73.0625 49.8122 66.0576Z" fill="white"/>
<path d="M150.75 66.0576C134.151 46.3685 123.432 22.9235 120.27 0H103.555C105.03 12.2829 108.204 24.3013 112.986 35.7111C119.218 50.5785 127.677 64.4104 138.073 76.7315C140.536 79.6497 143.057 82.4236 145.635 85.0532H170.439C163.228 79.4294 156.628 73.0625 150.75 66.0576Z" fill="white"/>
<path d="M251.678 66.0576C235.079 46.3685 224.366 22.9235 221.204 0H204.488C205.966 12.2824 209.14 24.3005 213.92 35.7111C220.154 50.5787 228.615 64.4106 239.012 76.7315C241.47 79.6497 244.005 82.4347 246.574 85.0532H271.378C264.165 79.4283 257.562 73.0615 251.678 66.0576Z" fill="white"/>
<path d="M49.8122 151.057C33.2132 131.368 22.5004 107.922 19.3382 84.999H2.61719C4.09549 97.2814 7.26945 109.299 12.0484 120.71C18.2807 135.577 26.7399 149.409 37.1355 161.731C39.5988 164.649 42.1212 167.423 44.7027 170.052H69.5013C62.2903 164.428 55.6909 158.061 49.8122 151.057Z" fill="white"/>
<path d="M150.75 151.057C134.151 131.368 123.432 107.922 120.27 84.999H103.555C105.03 97.2819 108.204 109.3 112.986 120.71C119.218 135.577 127.677 149.409 138.073 161.731C140.536 164.649 143.057 167.423 145.635 170.052H170.439C163.228 164.428 156.628 158.061 150.75 151.057Z" fill="white"/>
<path d="M251.678 151.057C235.079 131.368 224.366 107.922 221.204 84.999H204.488C205.966 97.2814 209.14 109.3 213.92 120.71C220.154 135.578 228.615 149.41 239.012 161.731C241.47 164.649 244.005 167.434 246.574 170.052H271.378C264.165 164.427 257.562 158.061 251.678 151.057Z" fill="white"/>
<path d="M60.4356 236.055C43.8366 216.371 33.1238 192.926 29.9616 169.997H13.2461C14.7235 182.281 17.8975 194.301 22.6773 205.714C28.9118 220.578 37.3709 234.408 47.7644 246.729C50.2277 249.65 52.7501 252.424 55.3316 255.05H80.1636C72.9405 249.427 66.3282 243.06 60.4356 236.055Z" fill="white"/>
<path d="M161.373 236.055C144.774 216.371 134.061 192.926 130.899 169.997H114.184C115.658 182.282 118.832 194.302 123.615 205.714C129.849 220.578 138.308 234.408 148.702 246.729C151.165 249.65 153.688 252.424 156.269 255.05H181.068C173.856 249.425 167.255 243.058 161.373 236.055Z" fill="white"/>
<path d="M262.312 236.055C245.713 216.371 235 192.926 231.838 169.997H215.117C216.595 182.281 219.769 194.301 224.548 205.714C230.783 220.578 239.242 234.408 249.636 246.729C252.099 249.65 254.621 252.424 257.203 255.05H282.001C274.791 249.426 268.191 243.059 262.312 236.055Z" fill="white"/>
<path d="M49.8122 321.058C33.2132 301.368 22.5004 277.923 19.3382 255H2.61719C4.09549 267.282 7.26945 279.3 12.0484 290.711C18.2807 305.578 26.7399 319.41 37.1355 331.732C39.5988 334.65 42.1212 337.424 44.7027 340.053H69.5013C62.2903 334.429 55.6909 328.062 49.8122 321.058Z" fill="white"/>
<path d="M150.75 321.058C134.151 301.368 123.432 277.923 120.27 255H103.555C105.03 267.283 108.204 279.301 112.986 290.711C119.218 305.578 127.677 319.41 138.073 331.732C140.536 334.65 143.057 337.424 145.635 340.053H170.439C163.228 334.429 156.628 328.062 150.75 321.058Z" fill="white"/>
<path d="M251.678 321.058C235.079 301.368 224.366 277.923 221.204 255H204.488C205.966 267.282 209.14 279.301 213.92 290.711C220.154 305.579 228.615 319.411 239.012 331.732C241.47 334.65 244.005 337.435 246.574 340.053H271.378C264.165 334.428 257.562 328.061 251.678 321.058Z" fill="white"/>
<path d="M49.8122 406.057C33.2132 386.368 22.5004 362.922 19.3382 339.999H2.61719C4.09549 352.281 7.26945 364.299 12.0484 375.71C18.2807 390.577 26.7399 404.409 37.1355 416.731C39.5988 419.649 42.1212 422.423 44.7027 425.052H69.5013C62.2903 419.428 55.6909 413.061 49.8122 406.057Z" fill="white"/>
<path d="M150.75 406.057C134.151 386.368 123.432 362.922 120.27 339.999H103.555C105.03 352.282 108.204 364.3 112.986 375.71C119.218 390.577 127.677 404.409 138.073 416.731C140.536 419.649 143.057 422.423 145.635 425.052H170.439C163.228 419.428 156.628 413.061 150.75 406.057Z" fill="white"/>
<path d="M251.678 406.057C235.079 386.368 224.366 362.922 221.204 339.999H204.488C205.966 352.281 209.14 364.3 213.92 375.71C220.154 390.578 228.615 404.41 239.012 416.731C241.47 419.649 244.005 422.434 246.574 425.052H271.378C264.165 419.427 257.562 413.061 251.678 406.057Z" fill="white"/>
<path d="M60.4356 491.055C43.8366 471.371 33.1238 447.926 29.9616 424.997H13.2461C14.7235 437.281 17.8975 449.301 22.6773 460.714C28.9118 475.578 37.3709 489.408 47.7644 501.729C50.2277 504.65 52.7501 507.424 55.3316 510.05H80.1636C72.9405 504.427 66.3282 498.06 60.4356 491.055Z" fill="white"/>
<path d="M161.373 491.055C144.774 471.371 134.061 447.926 130.899 424.997H114.184C115.658 437.282 118.832 449.302 123.615 460.714C129.849 475.578 138.308 489.408 148.702 501.729C151.165 504.65 153.688 507.424 156.269 510.05H181.068C173.856 504.425 167.255 498.058 161.373 491.055Z" fill="white"/>
<path d="M262.312 491.055C245.713 471.371 235 447.926 231.838 424.997H215.117C216.595 437.281 219.769 449.301 224.548 460.714C230.783 475.578 239.242 489.408 249.636 501.729C252.099 504.65 254.621 507.424 257.203 510.05H282.001C274.791 504.426 268.191 498.059 262.312 491.055Z" fill="white"/>
<path d="M49.8122 576.058C33.2132 556.368 22.5004 532.923 19.3382 510H2.61719C4.09549 522.282 7.26945 534.3 12.0484 545.711C18.2807 560.578 26.7399 574.41 37.1355 586.732C39.5988 589.65 42.1212 592.424 44.7027 595.053H69.5013C62.2903 589.429 55.6909 583.062 49.8122 576.058Z" fill="white"/>
<path d="M150.75 576.058C134.151 556.368 123.432 532.923 120.27 510H103.555C105.03 522.283 108.204 534.301 112.986 545.711C119.218 560.578 127.677 574.41 138.073 586.732C140.536 589.65 143.057 592.424 145.635 595.053H170.439C163.228 589.429 156.628 583.062 150.75 576.058Z" fill="white"/>
<path d="M251.678 576.058C235.079 556.368 224.366 532.923 221.204 510H204.488C205.966 522.282 209.14 534.301 213.92 545.711C220.154 560.579 228.615 574.411 239.012 586.732C241.47 589.65 244.005 592.435 246.574 595.053H271.378C264.165 589.428 257.562 583.061 251.678 576.058Z" fill="white"/>
<path d="M49.8122 661.057C33.2132 641.368 22.5004 617.922 19.3382 594.999H2.61719C4.09549 607.281 7.26945 619.299 12.0484 630.71C18.2807 645.577 26.7399 659.409 37.1355 671.731C39.5988 674.649 42.1212 677.423 44.7027 680.052H69.5013C62.2903 674.428 55.6909 668.061 49.8122 661.057Z" fill="white"/>
<path d="M150.75 661.057C134.151 641.368 123.432 617.922 120.27 594.999H103.555C105.03 607.282 108.204 619.3 112.986 630.71C119.218 645.577 127.677 659.409 138.073 671.731C140.536 674.649 143.057 677.423 145.635 680.052H170.439C163.228 674.428 156.628 668.061 150.75 661.057Z" fill="white"/>
<path d="M251.678 661.057C235.079 641.368 224.366 617.922 221.204 594.999H204.488C205.966 607.281 209.14 619.3 213.92 630.71C220.154 645.578 228.615 659.41 239.012 671.731C241.47 674.649 244.005 677.434 246.574 680.052H271.378C264.165 674.427 257.562 668.061 251.678 661.057Z" fill="white"/>
<path d="M60.4356 746.055C43.8366 726.371 33.1238 702.926 29.9616 679.997H13.2461C14.7235 692.281 17.8975 704.301 22.6773 715.714C28.9118 730.578 37.3709 744.408 47.7644 756.729C50.2277 759.65 52.7501 762.424 55.3316 765.05H80.1636C72.9405 759.427 66.3282 753.06 60.4356 746.055Z" fill="white"/>
<path d="M161.373 746.055C144.774 726.371 134.061 702.926 130.899 679.997H114.184C115.658 692.282 118.832 704.302 123.615 715.714C129.849 730.578 138.308 744.408 148.702 756.729C151.165 759.65 153.688 762.424 156.269 765.05H181.068C173.856 759.425 167.255 753.058 161.373 746.055Z" fill="white"/>
<path d="M262.312 746.055C245.713 726.371 235 702.926 231.838 679.997H215.117C216.595 692.281 219.769 704.301 224.548 715.714C230.783 730.578 239.242 744.408 249.636 756.729C252.099 759.65 254.621 762.424 257.203 765.05H282.001C274.791 759.426 268.191 753.059 262.312 746.055Z" fill="white"/>
</svg>
