<svg width="281" height="256" viewBox="0 0 281 256" fill="none" xmlns="http://www.w3.org/2000/svg">
<path d="M47.8122 66.0576C31.2132 46.3685 20.5004 22.9235 17.3382 0H0.617188C2.09549 12.2824 5.26945 24.3005 10.0484 35.7111C16.2807 50.5785 24.7399 64.4104 35.1355 76.7315C37.5988 79.6497 40.1212 82.4236 42.7027 85.0532H67.5013C60.2903 79.4294 53.6909 73.0625 47.8122 66.0576Z" fill="white"/>
<path d="M148.75 66.0576C132.151 46.3685 121.432 22.9235 118.27 0H101.555C103.03 12.2829 106.204 24.3013 110.986 35.7111C117.218 50.5785 125.677 64.4104 136.073 76.7315C138.536 79.6497 141.057 82.4236 143.635 85.0532H168.439C161.228 79.4294 154.628 73.0625 148.75 66.0576Z" fill="white"/>
<path d="M249.678 66.0576C233.079 46.3685 222.366 22.9235 219.204 0H202.488C203.966 12.2824 207.14 24.3005 211.92 35.7111C218.154 50.5787 226.615 64.4106 237.012 76.7315C239.47 79.6497 242.005 82.4347 244.574 85.0532H269.378C262.165 79.4283 255.562 73.0615 249.678 66.0576Z" fill="white"/>
<path d="M47.8122 151.057C31.2132 131.368 20.5004 107.922 17.3382 84.999H0.617188C2.09549 97.2814 5.26945 109.299 10.0484 120.71C16.2807 135.577 24.7399 149.409 35.1355 161.731C37.5988 164.649 40.1212 167.423 42.7027 170.052H67.5013C60.2903 164.428 53.6909 158.061 47.8122 151.057Z" fill="white"/>
<path d="M148.75 151.057C132.151 131.368 121.432 107.922 118.27 84.999H101.555C103.03 97.2819 106.204 109.3 110.986 120.71C117.218 135.577 125.677 149.409 136.073 161.731C138.536 164.649 141.057 167.423 143.635 170.052H168.439C161.228 164.428 154.628 158.061 148.75 151.057Z" fill="white"/>
<path d="M249.678 151.057C233.079 131.368 222.366 107.922 219.204 84.999H202.488C203.966 97.2814 207.14 109.3 211.92 120.71C218.154 135.578 226.615 149.41 237.012 161.731C239.47 164.649 242.005 167.434 244.574 170.052H269.378C262.165 164.427 255.562 158.061 249.678 151.057Z" fill="white"/>
<path d="M58.4356 236.055C41.8366 216.371 31.1238 192.926 27.9616 169.997H11.2461C12.7235 182.282 15.8975 194.302 20.6773 205.714C26.9118 220.578 35.3709 234.408 45.7644 246.729C48.2277 249.651 50.7501 252.424 53.3316 255.05H78.1636C70.9405 249.427 64.3282 243.06 58.4356 236.055Z" fill="white"/>
<path d="M159.373 236.055C142.774 216.371 132.061 192.926 128.899 169.997H112.184C113.658 182.282 116.832 194.302 121.615 205.714C127.849 220.578 136.308 234.408 146.702 246.729C149.165 249.651 151.688 252.424 154.269 255.05H179.068C171.856 249.425 165.255 243.058 159.373 236.055Z" fill="white"/>
<path d="M260.312 236.055C243.713 216.371 233 192.926 229.838 169.997H213.117C214.595 182.281 217.769 194.302 222.548 205.714C228.783 220.578 237.242 234.408 247.636 246.729C250.099 249.651 252.621 252.424 255.203 255.05H280.001C272.791 249.426 266.191 243.059 260.312 236.055Z" fill="white"/>
</svg>
