<svg width="123" height="123" viewBox="0 0 123 123" fill="none" xmlns="http://www.w3.org/2000/svg">
<path fill-rule="evenodd" clip-rule="evenodd" d="M8.64621 8.64621C0 17.2924 0 31.2083 0 59.04V63.96C0 91.7917 0 105.708 8.64621 114.354C17.2924 123 31.2083 123 59.0399 123H59.04H63.96H63.9601C91.7918 123 105.708 123 114.354 114.354C123 105.708 123 91.7918 123 63.9601V63.96V59.04V59.0399C123 31.2083 123 17.2924 114.354 8.64621C105.708 0 91.7917 0 63.96 0H59.04C31.2083 0 17.2924 0 8.64621 8.64621ZM20.7564 37.4128C21.4227 69.3928 37.4125 88.6115 65.4463 88.6115H67.0353V70.3152C77.3366 71.3402 85.126 78.8739 88.2523 88.6115H102.808C98.8102 74.0564 88.3034 66.0101 81.7434 62.9352C88.3034 59.1427 97.5285 49.9178 99.7322 37.4128H86.5093C83.6393 47.5602 75.1328 56.7852 67.0353 57.6564V37.4128H53.8124V72.8777C45.6124 70.8277 35.2601 60.8853 34.7989 37.4128H20.7564Z" fill="white"/>
</svg>
