<svg width="20" height="16" viewBox="0 0 20 16" fill="none" xmlns="http://www.w3.org/2000/svg">
<path d="M12.5077 6.67306C12.4042 6.3021 12.0301 6.08605 11.6679 6.19204C11.3057 6.29802 11.0948 6.68121 11.1983 7.05217C11.4132 7.83892 11.1983 8.67866 10.6371 9.25751L6.03636 13.9699C5.1767 14.8504 3.78374 14.8504 2.9201 13.9699C2.06045 13.0894 2.06045 11.6626 2.9201 10.778L7.52086 6.06567C7.82333 5.75586 8.2054 5.54389 8.61931 5.4542C8.98546 5.38083 9.22425 5.01395 9.15261 4.63484C9.08097 4.25573 8.72278 4.01522 8.35265 4.0886C8.34868 4.0886 8.34469 4.0886 8.34071 4.09268C7.66413 4.23943 7.04725 4.58185 6.5617 5.08325L1.96095 9.7956C0.579927 11.2305 0.599827 13.5418 2.00075 14.9523C3.38575 16.3505 5.61051 16.3505 6.99949 14.9523L11.6002 10.2399C12.5077 9.30643 12.8539 7.9449 12.5077 6.67306Z" fill="black"/>
<path d="M18.8955 1.06806C18.2269 0.383217 17.3194 3.18604e-05 16.3762 3.18604e-05C15.433 -0.00404457 14.5256 0.383217 13.8569 1.06806L9.26016 5.78041C8.34876 6.71392 8.00251 8.07952 8.34876 9.34729C8.45224 9.71825 8.82635 9.9343 9.18852 9.82831C9.55069 9.72232 9.76163 9.33914 9.65815 8.96818C9.44323 8.18143 9.65815 7.34169 10.2193 6.76283L14.8201 2.05048C15.6797 1.16997 17.0727 1.16997 17.9363 2.05048C18.796 2.93099 18.796 4.35774 17.9363 5.24232L13.3356 9.95468C13.0331 10.2645 12.651 10.4765 12.2331 10.5661C11.867 10.6436 11.6282 11.0146 11.7078 11.3896C11.7755 11.7116 12.054 11.944 12.3764 11.944C12.4242 11.944 12.4719 11.9399 12.5157 11.9277C13.1923 11.7809 13.8092 11.4385 14.2947 10.9371L18.8955 6.22475C20.2845 4.80207 20.2845 2.49481 18.8955 1.06806Z" fill="black"/>
</svg>
