<svg width="43" height="43" viewBox="0 0 43 43" fill="none" xmlns="http://www.w3.org/2000/svg">
<g clip-path="url(#clip0_349_1511)">
<path d="M20.1834 42.7565H21.9335C31.4338 42.7565 36.1848 42.7565 39.1352 39.8199C42.0857 36.8833 42.0604 32.1562 42.0604 22.7239V20.9569C42.0604 11.5263 42.0604 6.79757 39.1352 3.86094C36.21 0.924325 31.4338 0.924316 21.9335 0.924316H20.1834C10.6814 0.924316 5.93215 0.924325 2.9817 3.86094C0.0312481 6.79757 0.03125 11.5229 0.03125 20.9569V22.7239C0.03125 32.1562 0.0312481 36.8833 2.9817 39.8199C5.93215 42.7565 10.6814 42.7565 20.1834 42.7565Z" fill="#0077FF"/>
<path d="M22.5864 31.0849C13.1096 31.0849 7.35836 24.5407 7.13477 13.666H11.9345C12.0841 21.6543 15.7356 25.0444 18.5348 25.7354V13.666H23.1361V20.5583C25.8361 20.2604 28.6604 17.1247 29.612 13.666H34.136C33.4114 17.9212 30.3366 21.0569 28.1611 22.3504C30.3366 23.3962 33.8367 26.1337 35.1867 31.0849H30.2121C29.1614 27.7752 26.5859 25.2117 23.1361 24.8637V31.0849H22.5864Z" fill="white"/>
</g>
<defs>
<clipPath id="clip0_349_1511">
<rect width="42.0292" height="41.8322" fill="white" transform="translate(0.03125 0.924316)"/>
</clipPath>
</defs>
</svg>
