<svg width="888" height="164" viewBox="0 0 888 164" fill="none" xmlns="http://www.w3.org/2000/svg">
<path d="M39.5116 160.766H17.8531L26.5611 120.321H2L6.24238 100.211H30.8035L38.3951 63.789H14.0573L18.2997 43.6786H42.6375L51.3456 3.23448H73.004L64.296 43.6786H98.4583L107.166 3.23448H128.825L120.117 43.6786H144.678L140.436 63.789H115.874L108.283 100.211H132.621L128.378 120.321H104.04L95.3323 160.766H73.6739L82.3819 120.321H48.2196L39.5116 160.766ZM60.0536 63.789L52.462 100.211H86.6243L94.2159 63.789H60.0536Z" stroke="black" stroke-width="2" />
<path d="M251.522 160.766H212.448L156.85 3.23448H185.654L230.087 133.058H234.553L280.549 3.23448H308.906L251.522 160.766Z" stroke="black" stroke-width="2" />
<path d="M383.298 79.2069L455.641 160.766H420.363L361.416 93.2841H354.717V160.766H327.924V3.23448H354.717V67.3641H361.193L417.013 3.23448H450.059L383.298 79.2069Z" stroke="black" stroke-width="2" />
<path d="M577.657 160.766H472.491V3.23448H575.424V27.8138H499.285V69.5986H568.279V93.0607H499.285V136.186H577.657V160.766Z" stroke="black" stroke-width="2" />
<path d="M657.277 163C642.689 163 629.813 159.127 618.649 151.381C607.633 143.486 600.265 132.909 596.544 119.651L622.444 115.182C626.761 123.077 631.599 128.961 636.958 132.834C642.317 136.559 649.164 138.421 657.5 138.421C665.24 138.421 671.567 136.708 676.479 133.281C681.54 129.706 684.07 124.865 684.07 118.757C684.07 114.288 682.656 110.564 679.828 107.585C677 104.457 673.427 101.924 669.111 99.9876C664.794 98.051 659.063 95.891 651.918 93.5076C641.944 90.2303 633.757 87.0276 627.357 83.8993C620.956 80.6221 615.448 75.9297 610.834 69.8221C606.368 63.5655 604.135 55.5214 604.135 45.6897C604.135 36.6028 606.368 28.7076 610.834 22.0041C615.448 15.1517 621.626 9.93793 629.366 6.36276C637.107 2.78759 645.815 1 655.49 1C669.185 1 680.945 4.57517 690.769 11.7255C700.594 18.8759 707.515 28.7076 711.534 41.2207L686.08 45.4662C683.252 39.0607 679.307 34.1448 674.246 30.7186C669.185 27.2924 663.231 25.5793 656.383 25.5793C649.387 25.5793 643.507 27.2179 638.744 30.4952C633.981 33.7724 631.599 38.3903 631.599 44.349C631.599 48.8179 632.939 52.5421 635.618 55.5214C638.446 58.5007 642.019 60.9586 646.336 62.8952C650.653 64.8317 656.458 67.0662 663.752 69.5986C673.725 73.0248 681.912 76.3766 688.313 79.6538C694.714 82.931 700.147 87.6979 704.613 93.9545C709.227 100.211 711.534 108.181 711.534 117.863C711.534 126.95 709.078 134.92 704.166 141.772C699.403 148.625 692.853 153.913 684.517 157.637C676.33 161.212 667.25 163 657.277 163Z" stroke="black" stroke-width="2" />
<path d="M809.297 76.749H887V81.8883C887 97.6786 883.8 111.756 877.399 124.12C870.998 136.335 861.918 145.869 850.158 152.721C838.548 159.574 825.151 163 809.967 163C794.784 163 781.089 159.574 768.883 152.721C756.826 145.72 747.374 136.112 740.526 123.897C733.828 111.532 730.479 97.5297 730.479 81.8883C730.479 66.2469 733.753 52.3186 740.303 40.1035C747.002 27.7393 756.231 18.131 767.99 11.2786C779.899 4.42621 793.37 1 808.404 1C824.63 1 838.994 5.09655 851.498 13.2897C864.002 21.4828 872.933 32.5807 878.292 46.5834L851.721 51.0524C847.256 42.7103 841.376 36.3793 834.082 32.0593C826.937 27.7393 818.601 25.5793 809.074 25.5793C799.101 25.5793 790.244 27.9628 782.503 32.7297C774.912 37.4966 768.958 44.1255 764.641 52.6166C760.473 61.1076 758.389 70.8648 758.389 81.8883C758.389 92.9117 760.547 102.743 764.864 111.383C769.33 119.874 775.433 126.503 783.173 131.27C791.063 136.037 799.994 138.421 809.967 138.421C821.876 138.421 831.998 134.994 840.334 128.142C848.819 121.29 854.624 111.979 857.75 100.211H809.297V76.749Z" stroke="black" stroke-width="2" />
</svg>
