<svg width="28" height="28" viewBox="0 0 28 28" fill="none" xmlns="http://www.w3.org/2000/svg">
<path d="M9.02632 4.87988C5.42193 4.87988 2.5 7.80181 2.5 11.4062C2.5 15.019 3.94498 16.8272 9.99323 21.5314L12.7721 23.6928C13.4943 24.2545 14.5057 24.2545 15.2279 23.6928L18.0068 21.5314C24.055 16.8272 25.5 15.019 25.5 11.4062C25.5 7.80181 22.5781 4.87988 18.9737 4.87988C17.1022 4.87988 15.4359 5.73025 14 7.36643C12.5641 5.73025 10.8978 4.87988 9.02632 4.87988ZM9.02632 6.87988C10.5455 6.87988 11.9149 7.7374 13.1775 9.56323L13.3831 9.86057C13.6187 10.2013 14.0859 10.2864 14.4266 10.0508C14.501 9.99941 14.5654 9.93495 14.6169 9.86057L14.8225 9.56323C16.0851 7.7374 17.4545 6.87988 18.9737 6.87988C21.4735 6.87988 23.5 8.90638 23.5 11.4062C23.5 14.1865 22.3625 15.6099 16.7789 19.9527L14 22.1141L11.2211 19.9527C5.63746 15.6099 4.5 14.1865 4.5 11.4062C4.5 8.90638 6.5265 6.87988 9.02632 6.87988Z" fill="white"/>
</svg>
