<svg width="885" height="256" viewBox="0 0 885 256" fill="none" xmlns="http://www.w3.org/2000/svg">
<path d="M47.1951 66.0576C30.5961 46.3685 19.8833 22.9235 16.721 0H0C1.4783 12.2824 4.65226 24.3005 9.43125 35.7111C15.6656 50.5774 24.1247 64.409 34.5184 76.7315C36.9816 79.6497 39.504 82.4236 42.0855 85.0532H66.8842C59.6731 79.4294 53.0737 73.0625 47.1951 66.0576Z" fill="white"/>
<path d="M110.374 35.6335C116.607 50.5008 125.066 64.3327 135.461 76.6539C137.925 79.572 140.447 82.3459 143.029 84.9755H167.827C160.609 79.3456 154.004 72.9712 148.121 65.9577C131.545 46.2963 120.837 22.8902 117.659 0H100.938C102.424 12.2564 105.599 24.248 110.374 35.6335Z" fill="white"/>
<path d="M249.07 66.0576C232.471 46.3685 221.753 22.9235 218.59 0H201.875C203.351 12.2829 206.525 24.3013 211.306 35.7111C217.538 50.5785 225.998 64.4104 236.393 76.7315C238.857 79.6497 241.377 82.4236 243.955 85.0532H268.759C261.548 79.4294 254.949 73.0625 249.07 66.0576Z" fill="white"/>
<path d="M350.002 66.0576C333.403 46.3685 322.69 22.9235 319.528 0H302.812C304.291 12.2824 307.465 24.3005 312.244 35.7111C318.478 50.5774 326.937 64.409 337.331 76.7315C339.794 79.6497 342.316 82.4236 344.898 85.0532H369.697C362.485 79.4281 355.884 73.0613 350.002 66.0576Z" fill="white"/>
<path d="M450.936 66.0576C434.337 46.3685 423.624 22.9235 420.462 0H403.746C405.224 12.2824 408.398 24.3005 413.177 35.7111C419.412 50.5774 427.871 64.409 438.264 76.7315C440.728 79.6497 443.25 82.4236 445.832 85.0532H470.63C463.419 79.4281 456.818 73.0613 450.936 66.0576Z" fill="white"/>
<path d="M551.884 66.0576C535.285 46.3685 524.572 22.9235 521.41 0H504.684C506.159 12.2829 509.333 24.3014 514.115 35.7111C520.349 50.5774 528.808 64.409 539.202 76.7315C541.665 79.6497 544.188 82.4236 546.769 85.0532H571.568C564.359 79.4291 557.761 73.0622 551.884 66.0576Z" fill="white"/>
<path d="M652.812 66.0576C636.213 46.3685 625.5 22.9235 622.338 0H605.617C607.095 12.2824 610.269 24.3005 615.048 35.7111C621.281 50.5785 629.74 64.4104 640.136 76.7315C642.599 79.6497 645.121 82.4236 647.703 85.0532H672.501C665.29 79.4294 658.691 73.0625 652.812 66.0576Z" fill="white"/>
<path d="M753.75 66.0576C737.151 46.3685 726.432 22.9235 723.27 0H706.555C708.03 12.2829 711.204 24.3013 715.986 35.7111C722.218 50.5785 730.677 64.4104 741.073 76.7315C743.536 79.6497 746.057 82.4236 748.635 85.0532H773.439C766.228 79.4294 759.628 73.0625 753.75 66.0576Z" fill="white"/>
<path d="M854.678 66.0576C838.079 46.3685 827.366 22.9235 824.204 0H807.488C808.966 12.2824 812.14 24.3005 816.92 35.7111C823.154 50.5787 831.615 64.4106 842.012 76.7315C844.47 79.6497 847.005 82.4347 849.574 85.0532H874.378C867.165 79.4283 860.562 73.0615 854.678 66.0576Z" fill="white"/>
<path d="M47.1951 151.057C30.5961 131.368 19.8833 107.922 16.721 84.999H0C1.4783 97.2814 4.65226 109.299 9.43125 120.71C15.6656 135.576 24.1247 149.408 34.5184 161.731C36.9816 164.649 39.504 167.423 42.0855 170.052H66.8842C59.6731 164.428 53.0737 158.061 47.1951 151.057Z" fill="white"/>
<path d="M110.374 120.632C116.607 135.5 125.066 149.332 135.461 161.653C137.925 164.571 140.447 167.345 143.029 169.975H167.827C160.609 164.345 154.004 157.97 148.121 150.957C131.545 131.295 120.837 107.889 117.659 84.999H100.938C102.424 97.2554 105.599 109.247 110.374 120.632Z" fill="white"/>
<path d="M249.07 151.057C232.471 131.368 221.753 107.922 218.59 84.999H201.875C203.351 97.2819 206.525 109.3 211.306 120.71C217.538 135.577 225.998 149.409 236.393 161.731C238.857 164.649 241.377 167.423 243.955 170.052H268.759C261.548 164.428 254.949 158.061 249.07 151.057Z" fill="white"/>
<path d="M350.002 151.057C333.403 131.368 322.69 107.922 319.528 84.999H302.812C304.291 97.2814 307.465 109.3 312.244 120.71C318.478 135.576 326.937 149.408 337.331 161.731C339.794 164.649 342.316 167.423 344.898 170.052H369.697C362.485 164.427 355.884 158.06 350.002 151.057Z" fill="white"/>
<path d="M450.936 151.057C434.337 131.368 423.624 107.922 420.462 84.999H403.746C405.224 97.2814 408.398 109.3 413.177 120.71C419.412 135.576 427.871 149.408 438.264 161.731C440.728 164.649 443.25 167.423 445.832 170.052H470.63C463.419 164.427 456.818 158.06 450.936 151.057Z" fill="white"/>
<path d="M551.884 151.057C535.285 131.368 524.572 107.922 521.41 84.999H504.684C506.159 97.2819 509.333 109.3 514.115 120.71C520.349 135.576 528.808 149.408 539.202 161.731C541.665 164.649 544.188 167.423 546.769 170.052H571.568C564.359 164.428 557.761 158.061 551.884 151.057Z" fill="white"/>
<path d="M652.812 151.057C636.213 131.368 625.5 107.922 622.338 84.999H605.617C607.095 97.2814 610.269 109.299 615.048 120.71C621.281 135.577 629.74 149.409 640.136 161.731C642.599 164.649 645.121 167.423 647.703 170.052H672.501C665.29 164.428 658.691 158.061 652.812 151.057Z" fill="white"/>
<path d="M753.75 151.057C737.151 131.368 726.432 107.922 723.27 84.999H706.555C708.03 97.2819 711.204 109.3 715.986 120.71C722.218 135.577 730.677 149.409 741.073 161.731C743.536 164.649 746.057 167.423 748.635 170.052H773.439C766.228 164.428 759.628 158.061 753.75 151.057Z" fill="white"/>
<path d="M854.678 151.057C838.079 131.368 827.366 107.922 824.204 84.999H807.488C808.966 97.2814 812.14 109.3 816.92 120.71C823.154 135.578 831.615 149.41 842.012 161.731C844.47 164.649 847.005 167.434 849.574 170.052H874.378C867.165 164.427 860.562 158.061 854.678 151.057Z" fill="white"/>
<path d="M57.8184 236.055C41.2194 216.371 30.5066 192.926 27.3444 169.997H10.6289C12.1063 182.282 15.2803 194.302 20.0602 205.714C26.2946 220.578 34.7537 234.408 45.1473 246.729C47.6105 249.651 50.1329 252.424 52.7145 255.05H77.5131C70.3029 249.424 63.702 243.057 57.8184 236.055Z" fill="white"/>
<path d="M120.998 205.642C127.232 220.506 135.691 234.336 146.085 246.657C148.548 249.578 151.07 252.352 153.652 254.978H178.451C171.234 249.345 164.629 242.969 158.745 235.955C142.168 216.299 131.461 192.893 128.282 169.997H111.566C113.05 182.257 116.224 194.252 120.998 205.642Z" fill="white"/>
<path d="M259.705 236.055C243.106 216.371 232.393 192.926 229.231 169.997H212.504C213.979 182.282 217.153 194.302 221.935 205.714C228.17 220.578 236.629 234.408 247.022 246.729C249.486 249.651 252.008 252.424 254.589 255.05H279.388C272.181 249.424 265.583 243.058 259.705 236.055Z" fill="white"/>
<path d="M360.636 236.055C344.037 216.371 333.319 192.926 330.157 169.997H313.441C314.919 182.281 318.093 194.302 322.873 205.714C329.105 220.579 337.564 234.41 347.96 246.729C350.423 249.651 352.945 252.424 355.527 255.05H380.326C373.115 249.426 366.516 243.059 360.636 236.055Z" fill="white"/>
<path d="M461.57 236.055C444.965 216.371 434.253 192.926 431.091 169.997H414.375C415.85 182.282 419.024 194.302 423.806 205.714C430.037 220.58 438.496 234.411 448.893 246.729C451.357 249.651 453.877 252.424 456.455 255.05H481.259C474.048 249.426 467.449 243.059 461.57 236.055Z" fill="white"/>
<path d="M562.502 236.055C545.903 216.371 535.19 192.926 532.028 169.997H515.312C516.79 182.282 519.964 194.302 524.744 205.714C530.978 220.58 539.439 234.41 549.836 246.729C552.294 249.652 554.829 252.432 557.398 255.05H582.202C574.989 249.425 568.386 243.058 562.502 236.055Z" fill="white"/>
<path d="M663.436 236.055C646.837 216.371 636.124 192.926 632.962 169.997H616.246C617.723 182.282 620.897 194.302 625.677 205.714C631.912 220.578 640.371 234.408 650.764 246.729C653.228 249.651 655.75 252.424 658.332 255.05H683.164C675.941 249.427 669.328 243.06 663.436 236.055Z" fill="white"/>
<path d="M764.373 236.055C747.774 216.371 737.061 192.926 733.899 169.997H717.184C718.658 182.282 721.832 194.302 726.615 205.714C732.849 220.578 741.308 234.408 751.702 246.729C754.165 249.651 756.688 252.424 759.269 255.05H784.068C776.856 249.425 770.255 243.058 764.373 236.055Z" fill="white"/>
<path d="M865.312 236.055C848.713 216.371 838 192.926 834.838 169.997H818.117C819.595 182.281 822.769 194.302 827.548 205.714C833.783 220.578 842.242 234.408 852.636 246.729C855.099 249.651 857.621 252.424 860.203 255.05H885.001C877.791 249.426 871.191 243.059 865.312 236.055Z" fill="white"/>
</svg>
