<svg width="1120" height="475" viewBox="0 0 1120 475" fill="none" xmlns="http://www.w3.org/2000/svg">
<mask id="mask0_596_1624" style="mask-type:alpha" maskUnits="userSpaceOnUse" x="0" y="0" width="1120" height="475">
<rect width="1120" height="475" rx="20" fill="#D9D9D9"/>
</mask>
<g mask="url(#mask0_596_1624)">
<path d="M870.635 74.633C852.122 52.6746 840.175 26.5274 836.648 0.961914H818C819.649 14.6599 823.188 28.0631 828.518 40.7889C835.471 57.3686 844.905 72.7944 856.497 86.5371C859.244 89.7916 862.057 92.8852 864.936 95.8179H892.593C884.551 89.5459 877.191 82.4452 870.635 74.633Z" fill="white"/>
<path d="M941.099 40.7023C948.049 57.2832 957.483 72.7093 969.077 86.4505C971.824 89.705 974.637 92.7986 977.517 95.7313H1005.17C997.123 89.4525 989.757 82.3434 983.196 74.5216C964.709 52.5941 952.768 26.4903 949.222 0.961914H930.574C932.232 14.6309 935.773 28.0046 941.099 40.7023Z" fill="white"/>
<path d="M1095.78 74.633C1077.26 52.6746 1065.31 26.5274 1061.78 0.961914H1043.14C1044.79 14.6604 1048.33 28.0641 1053.66 40.7889C1060.61 57.3698 1070.04 72.7959 1081.64 86.5371C1084.38 89.7916 1087.2 92.8852 1090.07 95.8179H1117.73C1109.69 89.5459 1102.33 82.4452 1095.78 74.633Z" fill="white"/>
<path d="M870.635 169.428C852.122 147.47 840.175 121.323 836.648 95.7573H818C819.649 109.455 823.188 122.859 828.518 135.584C835.471 152.164 844.905 167.59 856.497 181.333C859.244 184.587 862.057 187.681 864.936 190.613H892.593C884.551 184.341 877.191 177.241 870.635 169.428Z" fill="white"/>
<path d="M941.099 135.498C948.049 152.079 957.483 167.505 969.077 181.246C971.824 184.5 974.637 187.594 977.517 190.527H1005.17C997.123 184.248 989.757 177.139 983.196 169.317C964.709 147.39 952.768 121.286 949.222 95.7573H930.574C932.232 109.426 935.773 122.8 941.099 135.498Z" fill="white"/>
<path d="M1095.78 169.428C1077.26 147.47 1065.31 121.323 1061.78 95.7573H1043.14C1044.79 109.456 1048.33 122.859 1053.66 135.584C1060.61 152.165 1070.04 167.591 1081.64 181.333C1084.38 184.587 1087.2 187.681 1090.07 190.613H1117.73C1109.69 184.341 1102.33 177.241 1095.78 169.428Z" fill="white"/>
<path d="M882.476 264.224C863.964 242.272 852.016 216.124 848.49 190.553H829.848C831.495 204.253 835.035 217.658 840.366 230.386C847.319 246.964 856.753 262.387 868.344 276.128C871.092 279.387 873.905 282.48 876.784 285.409H904.441C896.399 279.133 889.038 272.033 882.476 264.224Z" fill="white"/>
<path d="M952.94 230.306C959.893 246.883 969.327 262.307 980.919 276.048C983.666 279.306 986.479 282.4 989.358 285.328H1017.01C1008.97 279.046 1001.6 271.935 995.038 264.112C976.55 242.191 964.609 216.087 961.064 190.553H942.422C944.077 204.226 947.616 217.604 952.94 230.306Z" fill="white"/>
<path d="M1107.63 264.224C1089.12 242.272 1077.17 216.124 1073.64 190.553H1054.99C1056.63 204.253 1060.17 217.659 1065.51 230.386C1072.46 246.964 1081.89 262.387 1093.49 276.128C1096.23 279.387 1099.05 282.48 1101.92 285.409H1129.58C1121.54 279.134 1114.19 272.034 1107.63 264.224Z" fill="white"/>
<path d="M882.476 359.021C863.964 337.068 852.016 310.921 848.49 285.35H829.848C831.495 299.05 835.035 312.455 840.366 325.183C847.319 341.761 856.753 357.184 868.344 370.925C871.092 374.183 873.905 377.277 876.784 380.206H904.441C896.399 373.93 889.038 366.83 882.476 359.021Z" fill="white"/>
<path d="M952.94 325.102C959.893 341.68 969.327 357.104 980.919 370.844C983.666 374.103 986.479 377.197 989.358 380.125H1017.01C1008.97 373.842 1001.6 366.731 995.038 358.909C976.55 336.988 964.609 310.884 961.064 285.35H942.422C944.077 299.022 947.616 312.4 952.94 325.102Z" fill="white"/>
<path d="M1107.63 359.021C1089.12 337.068 1077.17 310.921 1073.64 285.35H1054.99C1056.63 299.05 1060.17 312.456 1065.51 325.183C1072.46 341.761 1081.89 357.184 1093.49 370.925C1096.23 374.183 1099.05 377.277 1101.92 380.206H1129.58C1121.54 373.931 1114.19 366.831 1107.63 359.021Z" fill="white"/>
<path d="M882.476 453.809C863.964 431.857 852.016 405.71 848.49 380.145H829.848C831.496 393.843 835.036 407.246 840.366 419.972C847.319 436.551 856.753 451.977 868.344 465.72C871.092 468.974 873.905 472.068 876.784 475.001H904.441C896.398 468.725 889.036 461.622 882.476 453.809Z" fill="white"/>
<path d="M952.94 419.885C959.893 436.465 969.327 451.89 980.919 465.633C983.666 468.888 986.479 471.981 989.358 474.914H1017.01C1008.96 468.633 1001.6 461.522 995.038 453.698C976.55 431.777 964.609 405.673 961.064 380.145H942.422C944.077 393.813 947.617 407.187 952.94 419.885Z" fill="white"/>
<path d="M1107.63 453.809C1089.12 431.857 1077.17 405.71 1073.64 380.145H1054.99C1056.63 393.843 1060.17 407.247 1065.51 419.972C1072.46 436.551 1081.89 451.977 1093.49 465.72C1096.23 468.974 1099.05 472.068 1101.92 475.001H1129.58C1121.54 468.726 1114.18 461.623 1107.63 453.809Z" fill="white"/>
</g>
</svg>
