<svg width="681" height="511" viewBox="0 0 681 511" fill="none" xmlns="http://www.w3.org/2000/svg">
<path d="M47.1951 321.108C30.5961 301.419 19.8833 277.974 16.721 255.051H0C1.4783 267.333 4.65226 279.351 9.43125 290.762C15.6656 305.628 24.1247 319.46 34.5184 331.782C36.9816 334.7 39.504 337.474 42.0855 340.104H66.8842C59.6731 334.48 53.0737 328.113 47.1951 321.108Z" fill="white"/>
<path d="M110.374 290.684C116.607 305.552 125.066 319.384 135.461 331.705C137.925 334.623 140.447 337.397 143.029 340.026H167.827C160.609 334.396 154.004 328.022 148.121 321.008C131.545 301.347 120.837 277.941 117.659 255.051H100.938C102.424 267.307 105.599 279.299 110.374 290.684Z" fill="white"/>
<path d="M249.07 321.108C232.471 301.419 221.753 277.974 218.59 255.051H201.875C203.351 267.334 206.525 279.352 211.306 290.762C217.538 305.629 225.998 319.461 236.393 331.782C238.857 334.7 241.377 337.474 243.955 340.104H268.759C261.548 334.48 254.949 328.113 249.07 321.108Z" fill="white"/>
<path d="M350.002 321.108C333.403 301.419 322.69 277.974 319.528 255.051H302.812C304.291 267.333 307.465 279.351 312.244 290.762C318.478 305.628 326.937 319.46 337.331 331.782C339.794 334.7 342.316 337.474 344.898 340.104H369.697C362.485 334.479 355.884 328.112 350.002 321.108Z" fill="white"/>
<path d="M450.936 321.108C434.337 301.419 423.624 277.974 420.462 255.051H403.746C405.224 267.333 408.398 279.351 413.177 290.762C419.412 305.628 427.871 319.46 438.264 331.782C440.728 334.7 443.25 337.474 445.832 340.104H470.63C463.419 334.479 456.818 328.112 450.936 321.108Z" fill="white"/>
<path d="M551.884 321.108C535.285 301.419 524.572 277.974 521.41 255.051H504.684C506.159 267.334 509.333 279.352 514.115 290.762C520.349 305.628 528.808 319.46 539.202 331.782C541.665 334.7 544.188 337.474 546.769 340.104H571.568C564.359 334.48 557.761 328.113 551.884 321.108Z" fill="white"/>
<path d="M652.812 321.108C636.213 301.419 625.5 277.974 622.338 255.051H605.617C607.095 267.333 610.269 279.351 615.048 290.762C621.281 305.629 629.74 319.461 640.136 331.782C642.599 334.7 645.121 337.474 647.703 340.104H672.501C665.29 334.48 658.691 328.113 652.812 321.108Z" fill="white"/>
<path d="M47.1951 406.107C30.5961 386.418 19.8833 362.973 16.721 340.05H0C1.4783 352.332 4.65226 364.35 9.43125 375.761C15.6656 390.627 24.1247 404.459 34.5184 416.781C36.9816 419.699 39.504 422.473 42.0855 425.103H66.8842C59.6731 419.479 53.0737 413.112 47.1951 406.107Z" fill="white"/>
<path d="M110.374 375.683C116.607 390.551 125.066 404.383 135.461 416.704C137.925 419.622 140.447 422.396 143.029 425.025H167.827C160.609 419.395 154.004 413.021 148.121 406.007C131.545 386.346 120.837 362.94 117.659 340.05H100.938C102.424 352.306 105.599 364.298 110.374 375.683Z" fill="white"/>
<path d="M249.07 406.107C232.471 386.418 221.753 362.973 218.59 340.05H201.875C203.351 352.333 206.525 364.351 211.306 375.761C217.538 390.628 225.998 404.46 236.393 416.781C238.857 419.699 241.377 422.473 243.955 425.103H268.759C261.548 419.479 254.949 413.112 249.07 406.107Z" fill="white"/>
<path d="M350.002 406.107C333.403 386.418 322.69 362.973 319.528 340.05H302.812C304.291 352.332 307.465 364.35 312.244 375.761C318.478 390.627 326.937 404.459 337.331 416.781C339.794 419.699 342.316 422.473 344.898 425.103H369.697C362.485 419.478 355.884 413.111 350.002 406.107Z" fill="white"/>
<path d="M450.936 406.107C434.337 386.418 423.624 362.973 420.462 340.05H403.746C405.224 352.332 408.398 364.35 413.177 375.761C419.412 390.627 427.871 404.459 438.264 416.781C440.728 419.699 443.25 422.473 445.832 425.103H470.63C463.419 419.478 456.818 413.111 450.936 406.107Z" fill="white"/>
<path d="M551.884 406.107C535.285 386.418 524.572 362.973 521.41 340.05H504.684C506.159 352.333 509.333 364.351 514.115 375.761C520.349 390.627 528.808 404.459 539.202 416.781C541.665 419.699 544.188 422.473 546.769 425.103H571.568C564.359 419.479 557.761 413.112 551.884 406.107Z" fill="white"/>
<path d="M652.812 406.107C636.213 386.418 625.5 362.973 622.338 340.05H605.617C607.095 352.332 610.269 364.35 615.048 375.761C621.281 390.628 629.74 404.46 640.136 416.781C642.599 419.699 645.121 422.473 647.703 425.103H672.501C665.29 419.479 658.691 413.112 652.812 406.107Z" fill="white"/>
<path d="M57.8184 491.105C41.2194 471.422 30.5066 447.977 27.3444 425.048H10.6289C12.1063 437.332 15.2803 449.352 20.0602 460.765C26.2946 475.629 34.7537 489.459 45.1473 501.779C47.6105 504.701 50.1329 507.475 52.7145 510.101H77.5131C70.3029 504.474 63.702 498.108 57.8184 491.105Z" fill="white"/>
<path d="M120.998 460.692C127.232 475.557 135.691 489.387 146.085 501.707C148.548 504.629 151.07 507.403 153.652 510.029H178.451C171.234 504.396 164.629 498.019 158.745 491.006C142.168 471.35 131.461 447.944 128.282 425.048H111.566C113.05 437.308 116.224 449.303 120.998 460.692Z" fill="white"/>
<path d="M259.705 491.105C243.106 471.422 232.393 447.977 229.231 425.048H212.504C213.979 437.333 217.153 449.353 221.935 460.765C228.17 475.629 236.629 489.459 247.022 501.779C249.486 504.701 252.008 507.475 254.589 510.101H279.388C272.181 504.475 265.583 498.108 259.705 491.105Z" fill="white"/>
<path d="M360.636 491.105C344.037 471.422 333.319 447.977 330.157 425.048H313.441C314.919 437.332 318.093 449.352 322.873 460.765C329.105 475.63 337.564 489.46 347.96 501.779C350.423 504.701 352.945 507.475 355.527 510.101H380.326C373.115 504.477 366.516 498.11 360.636 491.105Z" fill="white"/>
<path d="M461.57 491.105C444.965 471.422 434.253 447.977 431.091 425.048H414.375C415.85 437.333 419.024 449.353 423.806 460.765C430.037 475.631 438.496 489.461 448.893 501.779C451.357 504.701 453.877 507.475 456.455 510.101H481.259C474.048 504.477 467.449 498.11 461.57 491.105Z" fill="white"/>
<path d="M562.502 491.105C545.903 471.422 535.19 447.977 532.028 425.048H515.312C516.79 437.332 519.964 449.352 524.744 460.765C530.978 475.63 539.439 489.46 549.836 501.779C552.294 504.703 554.829 507.483 557.398 510.101H582.202C574.989 504.476 568.386 498.109 562.502 491.105Z" fill="white"/>
<path d="M663.436 491.105C646.837 471.422 636.124 447.977 632.962 425.048H616.246C617.723 437.332 620.897 449.352 625.677 460.765C631.912 475.629 640.371 489.459 650.764 501.779C653.228 504.701 655.75 507.475 658.332 510.101H683.164C675.941 504.478 669.328 498.111 663.436 491.105Z" fill="white"/>
<path d="M47.1951 66.0576C30.5961 46.3685 19.8833 22.9235 16.721 0H0C1.4783 12.2824 4.65226 24.3005 9.43125 35.7111C15.6656 50.5774 24.1247 64.409 34.5184 76.7315C36.9816 79.6497 39.504 82.4236 42.0855 85.0532H66.8842C59.6731 79.4294 53.0737 73.0625 47.1951 66.0576Z" fill="white"/>
<path d="M110.374 35.6335C116.607 50.5008 125.066 64.3327 135.461 76.6539C137.925 79.572 140.447 82.3459 143.029 84.9755H167.827C160.609 79.3456 154.004 72.9712 148.121 65.9577C131.545 46.2963 120.837 22.8902 117.659 0H100.938C102.424 12.2564 105.599 24.248 110.374 35.6335Z" fill="white"/>
<path d="M249.07 66.0576C232.471 46.3685 221.753 22.9235 218.59 0H201.875C203.351 12.2829 206.525 24.3013 211.306 35.7111C217.538 50.5785 225.998 64.4104 236.393 76.7315C238.857 79.6497 241.377 82.4236 243.955 85.0532H268.759C261.548 79.4294 254.949 73.0625 249.07 66.0576Z" fill="white"/>
<path d="M350.002 66.0576C333.403 46.3685 322.69 22.9235 319.528 0H302.812C304.291 12.2824 307.465 24.3005 312.244 35.7111C318.478 50.5774 326.937 64.409 337.331 76.7315C339.794 79.6497 342.316 82.4236 344.898 85.0532H369.697C362.485 79.4281 355.884 73.0613 350.002 66.0576Z" fill="white"/>
<path d="M450.936 66.0576C434.337 46.3685 423.624 22.9235 420.462 0H403.746C405.224 12.2824 408.398 24.3005 413.177 35.7111C419.412 50.5774 427.871 64.409 438.264 76.7315C440.728 79.6497 443.25 82.4236 445.832 85.0532H470.63C463.419 79.4281 456.818 73.0613 450.936 66.0576Z" fill="white"/>
<path d="M551.884 66.0576C535.285 46.3685 524.572 22.9235 521.41 0H504.684C506.159 12.2829 509.333 24.3014 514.115 35.7111C520.349 50.5774 528.808 64.409 539.202 76.7315C541.665 79.6497 544.188 82.4236 546.769 85.0532H571.568C564.359 79.4291 557.761 73.0622 551.884 66.0576Z" fill="white"/>
<path d="M652.812 66.0576C636.213 46.3685 625.5 22.9235 622.338 0H605.617C607.095 12.2824 610.269 24.3005 615.048 35.7111C621.281 50.5785 629.74 64.4104 640.136 76.7315C642.599 79.6497 645.121 82.4236 647.703 85.0532H672.501C665.29 79.4294 658.691 73.0625 652.812 66.0576Z" fill="white"/>
<path d="M47.1951 151.057C30.5961 131.368 19.8833 107.922 16.721 84.999H0C1.4783 97.2814 4.65226 109.299 9.43125 120.71C15.6656 135.576 24.1247 149.408 34.5184 161.731C36.9816 164.649 39.504 167.423 42.0855 170.052H66.8842C59.6731 164.428 53.0737 158.061 47.1951 151.057Z" fill="white"/>
<path d="M110.374 120.632C116.607 135.5 125.066 149.332 135.461 161.653C137.925 164.571 140.447 167.345 143.029 169.975H167.827C160.609 164.345 154.004 157.97 148.121 150.957C131.545 131.295 120.837 107.889 117.659 84.999H100.938C102.424 97.2554 105.599 109.247 110.374 120.632Z" fill="white"/>
<path d="M249.07 151.057C232.471 131.368 221.753 107.922 218.59 84.999H201.875C203.351 97.2819 206.525 109.3 211.306 120.71C217.538 135.577 225.998 149.409 236.393 161.731C238.857 164.649 241.377 167.423 243.955 170.052H268.759C261.548 164.428 254.949 158.061 249.07 151.057Z" fill="white"/>
<path d="M350.002 151.057C333.403 131.368 322.69 107.922 319.528 84.999H302.812C304.291 97.2814 307.465 109.3 312.244 120.71C318.478 135.576 326.937 149.408 337.331 161.731C339.794 164.649 342.316 167.423 344.898 170.052H369.697C362.485 164.427 355.884 158.06 350.002 151.057Z" fill="white"/>
<path d="M450.936 151.057C434.337 131.368 423.624 107.922 420.462 84.999H403.746C405.224 97.2814 408.398 109.3 413.177 120.71C419.412 135.576 427.871 149.408 438.264 161.731C440.728 164.649 443.25 167.423 445.832 170.052H470.63C463.419 164.427 456.818 158.06 450.936 151.057Z" fill="white"/>
<path d="M551.884 151.057C535.285 131.368 524.572 107.922 521.41 84.999H504.684C506.159 97.2819 509.333 109.3 514.115 120.71C520.349 135.576 528.808 149.408 539.202 161.731C541.665 164.649 544.188 167.423 546.769 170.052H571.568C564.359 164.428 557.761 158.061 551.884 151.057Z" fill="white"/>
<path d="M652.812 151.057C636.213 131.368 625.5 107.922 622.338 84.999H605.617C607.095 97.2814 610.269 109.299 615.048 120.71C621.281 135.577 629.74 149.409 640.136 161.731C642.599 164.649 645.121 167.423 647.703 170.052H672.501C665.29 164.428 658.691 158.061 652.812 151.057Z" fill="white"/>
<path d="M57.8184 236.055C41.2194 216.371 30.5066 192.926 27.3444 169.997H10.6289C12.1063 182.281 15.2803 194.301 20.0602 205.714C26.2946 220.578 34.7537 234.408 45.1473 246.729C47.6105 249.65 50.1329 252.424 52.7145 255.05H77.5131C70.3029 249.423 63.702 243.057 57.8184 236.055Z" fill="white"/>
<path d="M120.998 205.642C127.232 220.506 135.691 234.336 146.085 246.656C148.548 249.578 151.07 252.352 153.652 254.978H178.451C171.234 249.345 164.629 242.969 158.745 235.955C142.168 216.299 131.461 192.893 128.282 169.997H111.566C113.05 182.257 116.224 194.252 120.998 205.642Z" fill="white"/>
<path d="M259.705 236.055C243.106 216.371 232.393 192.926 229.231 169.997H212.504C213.979 182.282 217.153 194.302 221.935 205.714C228.17 220.578 236.629 234.408 247.022 246.729C249.486 249.65 252.008 252.424 254.589 255.05H279.388C272.181 249.424 265.583 243.058 259.705 236.055Z" fill="white"/>
<path d="M360.636 236.055C344.037 216.371 333.319 192.926 330.157 169.997H313.441C314.919 182.281 318.093 194.301 322.873 205.714C329.105 220.579 337.564 234.409 347.96 246.729C350.423 249.65 352.945 252.424 355.527 255.05H380.326C373.115 249.426 366.516 243.059 360.636 236.055Z" fill="white"/>
<path d="M461.57 236.055C444.965 216.371 434.253 192.926 431.091 169.997H414.375C415.85 182.282 419.024 194.302 423.806 205.714C430.037 220.58 438.496 234.411 448.893 246.729C451.357 249.65 453.877 252.424 456.455 255.05H481.259C474.048 249.426 467.449 243.059 461.57 236.055Z" fill="white"/>
<path d="M562.502 236.055C545.903 216.371 535.19 192.926 532.028 169.997H515.312C516.79 182.281 519.964 194.301 524.744 205.714C530.978 220.58 539.439 234.41 549.836 246.729C552.294 249.652 554.829 252.432 557.398 255.05H582.202C574.989 249.425 568.386 243.058 562.502 236.055Z" fill="white"/>
<path d="M663.436 236.055C646.837 216.371 636.124 192.926 632.962 169.997H616.246C617.723 182.281 620.897 194.301 625.677 205.714C631.912 220.578 640.371 234.408 650.764 246.729C653.228 249.65 655.75 252.424 658.332 255.05H683.164C675.941 249.427 669.328 243.06 663.436 236.055Z" fill="white"/>
</svg>
